<svg width="21" height="20" viewBox="0 0 21 20" fill="none" xmlns="http://www.w3.org/2000/svg">
<path d="M1.46629 0C2.05608 8.18902e-06 2.62794 0.202764 3.08601 0.574279C3.54409 0.945794 3.86053 1.46348 3.98229 2.04057L4.336 3.71429H4.34171L5.49028 9.21429L6.36057 13.4286H17.1343L18.7857 5.42857H5.86743L5.50914 3.71429H18.7863C19.0408 3.71428 19.2922 3.77097 19.5221 3.88022C19.752 3.98948 19.9547 4.14857 20.1155 4.34593C20.2762 4.5433 20.391 4.77399 20.4515 5.02125C20.512 5.26851 20.5166 5.52614 20.4651 5.77543L18.8137 13.7754C18.7339 14.1618 18.5232 14.5088 18.2173 14.7579C17.9113 15.007 17.5288 15.143 17.1343 15.1429H6.36057C5.96613 15.1429 5.58376 15.0068 5.27793 14.7577C4.9721 14.5087 4.76152 14.1617 4.68171 13.7754L3.05886 5.916L3.048 5.91829L2.30514 2.39429C2.26451 2.20193 2.15899 2.02938 2.00626 1.90558C1.85353 1.78177 1.66289 1.71424 1.46629 1.71429H0V0H1.46629ZM6.31886 19.1429C6.50647 19.1429 6.69226 19.1059 6.8656 19.0342C7.03895 18.9624 7.19645 18.8572 7.32913 18.7245C7.4618 18.5918 7.56705 18.4344 7.63885 18.261C7.71065 18.0877 7.74761 17.9019 7.74761 17.7143C7.74761 17.5267 7.71065 17.3409 7.63885 17.1676C7.56705 16.9942 7.4618 16.8367 7.32913 16.7041C7.19645 16.5714 7.03895 16.4662 6.8656 16.3944C6.69226 16.3226 6.50647 16.2857 6.31886 16.2857C5.94001 16.2858 5.57669 16.4363 5.30882 16.7042C5.04095 16.9721 4.89047 17.3354 4.89047 17.7143C4.89047 18.0931 5.04095 18.4565 5.30882 18.7244C5.57669 18.9923 5.94001 19.1428 6.31886 19.1429ZM16.6046 19.1429C16.7922 19.1429 16.978 19.1059 17.1513 19.0342C17.3247 18.9624 17.4822 18.8572 17.6148 18.7245C17.7475 18.5918 17.8528 18.4344 17.9246 18.261C17.9964 18.0877 18.0333 17.9019 18.0333 17.7143C18.0333 17.5267 17.9964 17.3409 17.9246 17.1676C17.8528 16.9942 17.7475 16.8367 17.6148 16.7041C17.4822 16.5714 17.3247 16.4662 17.1513 16.3944C16.978 16.3226 16.7922 16.2857 16.6046 16.2857C16.2257 16.2858 15.8624 16.4363 15.5945 16.7042C15.3267 16.9721 15.1762 17.3354 15.1762 17.7143C15.1762 18.0931 15.3267 18.4565 15.5945 18.7244C15.8624 18.9923 16.2257 19.1428 16.6046 19.1429Z" fill="#FFFFFD"/>
</svg>
